# xmcd
#
# Track frame offsets: 
#        150
#        16081
#        33549
#        48797
#        65969
#        80396
#        93512
#        111865
#        130965
#        150058
#        164635
#        182793
#
# Disc length: 2643 seconds
#
# Revision: 2
# Processed by: cddbd v1.5.2PL0 Copyright (c) Steve Scherf et al.
# Submitted via: ExactAudioCopy v1.0b4
#
DISCID=950a510c
DTITLE=Flávio José - Palavras Ao Vento
DYEAR=2002
DGENRE=Forró
TTITLE0=Palavras Ao Vento
TTITLE1=Canção Da Saudade
TTITLE2=Sobras De Um Amor
TTITLE3=Invultado
TTITLE4=Cumbe
TTITLE5=Flor De Croatá
TTITLE6=Retalhos De Paixão
TTITLE7=É Só Saudade
TTITLE8=Temporal De Saudade
TTITLE9=Velho Chico
TTITLE10=Disfarce
TTITLE11=Qaundo O Amor Acontece
EXTD=
EXTT0=
EXTT1=
EXTT2=
EXTT3=
EXTT4=
EXTT5=
EXTT6=
EXTT7=
EXTT8=
EXTT9=
EXTT10=
EXTT11=
PLAYORDER=
